<svg width="20" height="22" viewBox="0 0 20 22" fill="none" xmlns="http://www.w3.org/2000/svg">
<path d="M4.80273 11.2893L7.00273 12.9393C8.0694 13.7393 9.53607 13.7393 10.6027 12.9393L12.8027 11.2893M10.4876 6.28931H3.80273C2.14588 6.28931 0.802734 7.63245 0.802734 9.28931V17.2893C0.802734 18.9462 2.14588 20.2893 3.80273 20.2893H13.8027C15.4596 20.2893 16.8027 18.9462 16.8027 17.2893V9.28931C16.8027 9.04946 16.8027 8.85516 16.8027 8.85516" stroke="#28303F" stroke-width="1.5" stroke-linecap="round" stroke-linejoin="round"/>
<path d="M15.2092 4.00848C15.2092 3.59427 14.8734 3.25848 14.4592 3.25848C14.045 3.25848 13.7092 3.59427 13.7092 4.00848H15.2092ZM14.4592 5.50848H13.7092C13.7092 5.9227 14.045 6.25848 14.4592 6.25848V5.50848ZM15.9592 6.25848C16.3734 6.25848 16.7092 5.9227 16.7092 5.50848C16.7092 5.09427 16.3734 4.75848 15.9592 4.75848V6.25848ZM17.7092 5.50848C17.7092 7.30341 16.2542 8.75848 14.4592 8.75848V10.2585C17.0826 10.2585 19.2092 8.13184 19.2092 5.50848H17.7092ZM14.4592 8.75848C12.6643 8.75848 11.2092 7.30341 11.2092 5.50848H9.70923C9.70923 8.13184 11.8359 10.2585 14.4592 10.2585V8.75848ZM11.2092 5.50848C11.2092 3.71356 12.6643 2.25848 14.4592 2.25848V0.758484C11.8359 0.758484 9.70923 2.88513 9.70923 5.50848H11.2092ZM14.4592 2.25848C16.2542 2.25848 17.7092 3.71356 17.7092 5.50848H19.2092C19.2092 2.88513 17.0826 0.758484 14.4592 0.758484V2.25848ZM13.7092 4.00848V5.50848H15.2092V4.00848H13.7092ZM14.4592 6.25848H15.9592V4.75848H14.4592V6.25848Z" fill="#28303F"/>
</svg>
